<svg width="20" height="20" fill="none" xmlns="http://www.w3.org/2000/svg"><path fill-rule="evenodd" clip-rule="evenodd" d="M10 6.718a3.282 3.282 0 1 0 0 6.564 3.282 3.282 0 0 0 0-6.564ZM5.077 10a4.923 4.923 0 1 1 9.846 0 4.923 4.923 0 0 1-9.846 0ZM10 .154a.82.82 0 0 1 .82.82v1.641a.82.82 0 1 1-1.64 0V.975A.82.82 0 0 1 10 .153ZM10 16.564a.82.82 0 0 1 .82.82v1.642a.82.82 0 1 1-1.64 0v-1.641a.82.82 0 0 1 .82-.82ZM3.036 3.035a.82.82 0 0 1 1.16 0L5.363 4.2a.82.82 0 0 1-1.16 1.16L3.035 4.197a.82.82 0 0 1 0-1.16ZM14.638 14.638a.82.82 0 0 1 1.16 0l1.166 1.165a.82.82 0 0 1-1.16 1.16l-1.166-1.165a.82.82 0 0 1 0-1.16ZM.154 10a.82.82 0 0 1 .82-.82h1.641a.82.82 0 0 1 0 1.64H.975A.82.82 0 0 1 .153 10ZM16.564 10a.82.82 0 0 1 .82-.82h1.642a.82.82 0 0 1 0 1.64h-1.641a.82.82 0 0 1-.82-.82ZM5.362 14.638c.32.32.32.84 0 1.16l-1.165 1.165a.82.82 0 1 1-1.16-1.16L4.2 14.638a.82.82 0 0 1 1.16 0ZM16.964 3.035c.32.32.32.84 0 1.16l-1.165 1.166a.82.82 0 0 1-1.16-1.16l1.165-1.166a.82.82 0 0 1 1.16 0Z" fill="#101010"/></svg>